<?xml version="1.0" encoding="utf-8"?>
<!-- Generator: Adobe Illustrator 26.0.2, SVG Export Plug-In . SVG Version: 6.00 Build 0)  -->
<svg version="1.1" id="Calque_1" xmlns="http://www.w3.org/2000/svg" xmlns:xlink="http://www.w3.org/1999/xlink" x="0px" y="0px"
	 viewBox="0 0 595.28 841.89" style="enable-background:new 0 0 595.28 841.89;" xml:space="preserve">
<style type="text/css">
	.st0{fill:#aaaaaa;}
</style>
<g fill="white">
	<g fill="white">
		<path class="st0" d="M588.78,799.41c-185.73,0-371.46,0-557.2,0c0-212.4,0-424.79,0-637.19c185.73,0,371.46,0,557.2,0
			C588.78,374.62,588.78,587.02,588.78,799.41z M193.41,433.06c2.49-0.84,1.14-2.17,0.45-3.43c-2.24-4.04-0.4-7.85,4.19-8.41
			c2.24-0.28,3.3-1.15,2.95-3.5c-0.15-1.01-0.02-2.06-0.07-3.09c-0.13-2.78-0.68-4.79-4.4-4.49c-3.64,0.29-6.57-4.32-4.76-7.54
			c1.48-2.62,0.67-3.67-1.57-4.69c-1.35-0.62-2.64-1.36-3.97-2.01c-1.91-0.95-3.21-0.85-4.3,1.47c-1.65,3.48-6.96,4.09-9.09,0.96
			c-1.79-2.63-3.3-2.63-5.5-0.87c-0.98,0.78-2.08,1.41-3.16,2.05c-1.9,1.12-2.36,2.26-1.02,4.37c2.38,3.74,0.18,8.1-4.21,8.43
			c-2.11,0.16-2.88,0.91-2.71,2.93c0.1,1.14,0.09,2.3,0.01,3.44c-0.22,3.16,0.58,4.94,4.38,4.69c3.33-0.22,6.29,4.37,4.77,7.33
			c-1.39,2.71-0.52,4,1.86,5.05c1.46,0.64,2.84,1.65,4.37,1.93c0.98,0.18,2.65-0.32,3.15-1.08c2.83-4.32,6.73-4.57,10.28-0.58
			c0.58,0.66,2.15,1.26,2.74,0.93c2.04-1.11,3.84-2.64,5.74-4L193.41,433.06z M211.72,425.75c-1.15,0.07-2.86,0.15-4.58,0.27
			c-6.2,0.44-6.59,0.89-6.27,7.03c0.03,0.67-0.01,1.37-0.15,2.03c-1.41,6.96-10.54,10.4-16.66,6.29c-3.46-2.32-4.81-2.2-7.05,1.2
			c-2.27,3.43-4.41,6.98-6.33,10.62c-2.33,4.41-1.77,5.27,2.33,8.03c2.05,1.39,4.56,3.42,5.03,5.56c1.34,6.18,0.71,11.37-6.27,14.13
			c-2.42,0.96-3,2.71-1.88,4.97c1.84,3.69,3.56,7.46,5.68,10.99c3.16,5.27,4.61,5.56,9.88,2.16c2.47-1.6,4.79-1.74,7.47-0.69
			c4.72,1.86,8.86,5,8.16,11.96c-0.3,3.01,1.44,4.49,4.29,4.57c4.12,0.12,8.25,0.22,12.36,0.04c5.47-0.23,6.14-0.75,5.76-6.05
			c-0.36-5,2.29-7.61,6.13-9.74c3.82-2.12,7.31-1.92,10.82,0.86c2.77,2.2,4.58,1.83,6.56-1.21c2.38-3.64,4.64-7.38,6.71-11.2
			c2.29-4.23,2.02-5.03-2.21-7.23c-3.83-1.98-5.81-4.85-5.88-9.28c-0.07-4.85,1.49-8.34,6.15-10.44c3.46-1.57,3.91-3.52,2.14-6.88
			c-1.7-3.25-3.4-6.51-5.36-9.6c-3.27-5.16-4.43-5.28-9.67-2.24c-1.51,0.88-3.42,1.8-5.04,1.63c-6.52-0.68-10.92-5.97-10.66-12.46
			c0.13-3.16-1.32-4.72-4.36-4.94C216.64,425.99,214.47,425.9,211.72,425.75z"/>
		<path d="M211.72,425.75c2.75,0.15,4.92,0.24,7.09,0.4c3.04,0.23,4.49,1.78,4.36,4.94c-0.27,6.49,4.13,11.78,10.66,12.46
			c1.62,0.17,3.53-0.76,5.04-1.63c5.23-3.04,6.39-2.92,9.67,2.24c1.96,3.09,3.66,6.36,5.36,9.6c1.76,3.36,1.32,5.31-2.14,6.88
			c-4.66,2.11-6.22,5.6-6.15,10.44c0.06,4.43,2.05,7.29,5.88,9.28c4.24,2.19,4.51,3,2.21,7.23c-2.07,3.82-4.33,7.56-6.71,11.2
			c-1.99,3.04-3.8,3.41-6.56,1.21c-3.51-2.79-7-2.99-10.82-0.86c-3.84,2.13-6.49,4.74-6.13,9.74c0.38,5.29-0.29,5.82-5.76,6.05
			c-4.11,0.17-8.24,0.07-12.36-0.04c-2.85-0.08-4.6-1.56-4.29-4.57c0.7-6.97-3.44-10.1-8.16-11.96c-2.67-1.05-4.99-0.91-7.47,0.69
			c-5.26,3.4-6.71,3.11-9.88-2.16c-2.12-3.53-3.84-7.29-5.68-10.99c-1.13-2.27-0.54-4.01,1.88-4.97c6.98-2.76,7.61-7.96,6.27-14.13
			c-0.47-2.14-2.98-4.17-5.03-5.56c-4.09-2.77-4.65-3.62-2.33-8.03c1.92-3.64,4.06-7.18,6.33-10.62c2.25-3.4,3.6-3.51,7.05-1.2
			c6.12,4.11,15.26,0.66,16.66-6.29c0.13-0.66,0.18-1.36,0.15-2.03c-0.32-6.14,0.07-6.59,6.27-7.03
			C208.85,425.9,210.57,425.82,211.72,425.75z M171.22,484.09c3.04,5.21,5.89,10.11,8.86,15.2c2.87-1.7,5.33-3.38,8-4.63
			c1.12-0.52,2.86-0.54,3.99-0.04c2.39,1.05,4.48,2.79,6.85,3.9c3.51,1.64,4.81,4.25,4.46,7.99c-0.17,1.79-0.03,3.61-0.03,5.49
			c6.1,0,11.77,0,17.4,0c0-2.39-0.18-4.56,0.03-6.68c0.76-7.57,12.82-13.18,19.25-8.9c2.05,1.36,4.01,1.76,5.44-0.21
			c2.73-3.77,5.08-7.81,8.18-12.67c-11-1.83-11.54-9.34-10.79-17.7c0.18-2.04,0.63-3.4,2.54-4.38c2.52-1.29,4.9-2.86,7.57-4.46
			c-3.03-5.19-5.88-10.07-8.79-15.06c-1.31,0.74-2.44,1.15-3.27,1.89c-4.44,3.9-8.47,3.5-13.43,0.28
			c-4.74-3.08-7.94-6.08-6.71-12.16c0.18-0.92-0.92-2.98-1.54-3.02c-4.29-0.31-8.6-0.24-12.91-0.28c-3.22-0.03-3.09,1.99-3.06,4.43
			c0.03,2.14-0.02,5.09-1.32,6.27c-2.96,2.68-6.52,4.94-10.2,6.52c-2.93,1.26-6.08,0.02-8.59-2.16c-0.83-0.73-1.68-1.44-2.82-2.4
			c-3.14,5.34-6.12,10.41-9.3,15.82c5.7,3,10.61,5.3,10.64,13.46C181.69,478.79,176.65,481.04,171.22,484.09z"/>
		<path d="M193.53,432.93c-1.89,1.37-3.7,2.9-5.74,4c-0.59,0.32-2.16-0.28-2.74-0.93c-3.55-3.99-7.45-3.74-10.28,0.58
			c-0.5,0.76-2.17,1.27-3.15,1.08c-1.52-0.28-2.9-1.28-4.37-1.93c-2.38-1.05-3.25-2.34-1.86-5.05c1.52-2.96-1.43-7.55-4.77-7.33
			c-3.8,0.25-4.6-1.53-4.38-4.69c0.08-1.14,0.08-2.3-0.01-3.44c-0.17-2.02,0.6-2.77,2.71-2.93c4.38-0.33,6.59-4.69,4.21-8.43
			c-1.35-2.11-0.88-3.26,1.02-4.37c1.08-0.64,2.19-1.27,3.16-2.05c2.2-1.76,3.71-1.76,5.5,0.87c2.13,3.13,7.45,2.51,9.09-0.96
			c1.09-2.31,2.39-2.41,4.3-1.47c1.33,0.66,2.62,1.4,3.97,2.01c2.23,1.02,3.04,2.07,1.57,4.69c-1.82,3.22,1.11,7.83,4.76,7.54
			c3.72-0.3,4.27,1.71,4.4,4.49c0.05,1.03-0.08,2.08,0.07,3.09c0.35,2.35-0.7,3.23-2.95,3.5c-4.6,0.56-6.43,4.37-4.19,8.41
			c0.69,1.25,2.04,2.59-0.45,3.42c-0.29-1.13-0.27-2.48-0.92-3.33c-1.57-2.06-1.02-3.84-0.3-6.06c1.27-3.95,4.63-3.4,7.72-4
			c-0.16-2.82-0.31-5.47-0.47-8.26c-3.43,0.11-6.07,0.62-8.16-2.79c-1.97-3.21-1.37-5.61,0.53-8.63c-2.87-1.39-5.37-2.6-7.86-3.8
			c-3.39,6.96-8.96,7.19-13.89,0.78c-2.25,1.43-4.52,2.88-6.88,4.38c1.13,2.79,3.67,4.71,1.68,8.43c-1.9,3.56-4.86,3.49-7.9,4.25
			c0.29,2.8,0.55,5.38,0.83,8.09c2.91,0.21,5.67-1.02,7.8,2.59c1.94,3.29,1.67,5.65-0.37,8.61c2.83,1.4,5.4,2.67,7.99,3.94
			c2.39-5.08,8.53-7.3,11.12-3.89c2.68,3.52,4.58,1.95,7.04,0.43C192.02,433.39,192.81,433.21,193.53,432.93z"/>
		<path class="st0" d="M171.22,484.09c5.44-3.06,10.48-5.31,10.45-13.5c-0.03-8.16-4.94-10.46-10.64-13.46
			c3.18-5.41,6.17-10.49,9.3-15.82c1.13,0.97,1.98,1.68,2.82,2.4c2.51,2.18,5.66,3.42,8.59,2.16c3.68-1.58,7.24-3.84,10.2-6.52
			c1.3-1.18,1.35-4.13,1.32-6.27c-0.04-2.44-0.17-4.46,3.06-4.43c4.31,0.04,8.62-0.04,12.91,0.28c0.62,0.05,1.72,2.11,1.54,3.02
			c-1.22,6.09,1.97,9.08,6.71,12.16c4.96,3.23,8.99,3.62,13.43-0.28c0.84-0.74,1.96-1.15,3.27-1.89c2.91,4.98,5.76,9.87,8.79,15.06
			c-2.67,1.59-5.05,3.17-7.57,4.46c-1.91,0.97-2.35,2.34-2.54,4.38c-0.75,8.35-0.21,15.86,10.79,17.7c-3.1,4.86-5.45,8.9-8.18,12.67
			c-1.43,1.97-3.39,1.57-5.44,0.21c-6.43-4.27-18.49,1.34-19.25,8.9c-0.21,2.13-0.03,4.29-0.03,6.68c-5.63,0-11.3,0-17.4,0
			c0-1.89-0.14-3.7,0.03-5.49c0.35-3.74-0.94-6.35-4.46-7.99c-2.37-1.11-4.46-2.84-6.85-3.9c-1.13-0.5-2.87-0.48-3.99,0.04
			c-2.67,1.24-5.13,2.93-8,4.63C177.11,494.21,174.25,489.31,171.22,484.09z"/>
		<path class="st0" d="M193.53,432.93c-0.72,0.28-1.51,0.46-2.16,0.86c-2.45,1.52-4.35,3.09-7.04-0.43
			c-2.59-3.4-8.73-1.19-11.12,3.89c-2.58-1.27-5.15-2.55-7.99-3.94c2.04-2.96,2.31-5.32,0.37-8.61c-2.13-3.61-4.89-2.39-7.8-2.59
			c-0.28-2.71-0.54-5.29-0.83-8.09c3.04-0.76,6.01-0.69,7.9-4.25c1.99-3.73-0.55-5.64-1.68-8.43c2.36-1.5,4.64-2.95,6.88-4.38
			c4.92,6.42,10.5,6.19,13.89-0.78c2.49,1.21,4.99,2.41,7.86,3.8c-1.9,3.02-2.51,5.42-0.53,8.63c2.09,3.4,4.73,2.9,8.16,2.79
			c0.16,2.79,0.31,5.44,0.47,8.26c-3.08,0.6-6.45,0.06-7.72,4c-0.71,2.22-1.27,4,0.3,6.06c0.65,0.85,0.63,2.21,0.92,3.33
			C193.41,433.06,193.53,432.93,193.53,432.93z M185.35,416.93c0.06-3.9-3.08-7.27-6.74-7.22c-3.59,0.05-6.93,3.2-7.07,6.66
			c-0.15,3.81,2.93,7.22,6.67,7.37C182.03,423.9,185.28,420.8,185.35,416.93z"/>
		<path d="M185.35,416.93c-0.06,3.86-3.32,6.97-7.14,6.81c-3.74-0.15-6.82-3.56-6.67-7.37c0.14-3.46,3.48-6.61,7.07-6.66
			C182.27,409.67,185.41,413.03,185.35,416.93z M178.37,422.4c3.28,0.02,6.1-2.59,6.08-5.63c-0.02-2.95-3-5.81-6.05-5.8
			c-3.03,0.01-5.64,2.66-5.62,5.7C172.79,419.65,175.46,422.38,178.37,422.4z"/>
		<path class="st0" d="M178.37,422.4c-2.91-0.01-5.58-2.75-5.6-5.73c-0.02-3.04,2.59-5.69,5.62-5.7c3.06-0.01,6.04,2.85,6.05,5.8
			C184.47,419.81,181.65,422.42,178.37,422.4z"/>
	</g>
</g>
</svg>
